<svg width="56" height="57" viewBox="0 0 56 57" fill="none" xmlns="http://www.w3.org/2000/svg">
<path d="M39.2 5.24805H33.1333C25.6667 5.24805 21 9.91471 21 17.3814V26.8314H31.36L26.53 22.0014C26.18 21.6514 26.0167 21.208 26.0167 20.7647C26.0167 20.3214 26.18 19.878 26.53 19.528C27.2067 18.8514 28.3267 18.8514 29.0033 19.528L36.82 27.3447C37.4967 28.0214 37.4967 29.1414 36.82 29.818L29.0033 37.6347C28.3267 38.3114 27.2067 38.3114 26.53 37.6347C25.8533 36.958 25.8533 35.838 26.53 35.1614L31.36 30.3314H21V39.7814C21 47.248 25.6667 51.9147 33.1333 51.9147H39.1767C46.6433 51.9147 51.31 47.248 51.31 39.7814V17.3814C51.3333 9.91471 46.6667 5.24805 39.2 5.24805Z" fill="#58B80C"/>
<path d="M6.41675 26.832C5.46008 26.832 4.66675 27.6252 4.66675 28.5818C4.66675 29.5383 5.46008 30.3315 6.41675 30.3315H21.0001V26.832H6.41675Z" fill="#58B80C"/>
</svg>
