<svg width="445" height="450" viewBox="0 0 445 450" fill="none" xmlns="http://www.w3.org/2000/svg">
<path d="M403.125 290.625C408.375 290.625 412.5 294.75 412.5 300V318.75C412.5 349.875 387.375 375 356.25 375C356.25 344.062 330.938 318.75 300 318.75C269.062 318.75 243.75 344.062 243.75 375H206.25C206.25 344.062 180.938 318.75 150 318.75C119.062 318.75 93.75 344.062 93.75 375C62.625 375 37.5 349.875 37.5 318.75V281.25C37.5 270.938 45.9375 262.5 56.25 262.5H234.375C260.25 262.5 281.25 241.5 281.25 215.625V112.5C281.25 102.188 289.688 93.75 300 93.75H315.75C329.25 93.75 341.625 101.063 348.375 112.688L360.375 133.688C362.062 136.688 359.812 140.625 356.25 140.625C330.375 140.625 309.375 161.625 309.375 187.5V243.75C309.375 269.625 330.375 290.625 356.25 290.625H403.125Z" fill="#58B80C"/>
<path d="M150 412.5C170.711 412.5 187.5 395.711 187.5 375C187.5 354.289 170.711 337.5 150 337.5C129.289 337.5 112.5 354.289 112.5 375C112.5 395.711 129.289 412.5 150 412.5Z" fill="#58B80C"/>
<path d="M300 412.5C320.711 412.5 337.5 395.711 337.5 375C337.5 354.289 320.711 337.5 300 337.5C279.289 337.5 262.5 354.289 262.5 375C262.5 395.711 279.289 412.5 300 412.5Z" fill="#58B80C"/>
<path d="M412.5 234.937V262.5H356.25C345.938 262.5 337.5 254.062 337.5 243.75V187.5C337.5 177.188 345.938 168.75 356.25 168.75H380.438L407.625 216.375C410.812 222 412.5 228.375 412.5 234.937Z" fill="#58B80C"/>
<path d="M245.25 37.5H106.688C73.125 37.5 45 61.5 38.8125 93.375H120.75C127.875 93.375 133.5 99.1875 133.5 106.312C133.5 113.438 127.875 119.062 120.75 119.062H37.5V144.938H86.25C93.375 144.938 99.1875 150.75 99.1875 157.875C99.1875 165 93.375 170.625 86.25 170.625H37.5V196.5H51.9375C59.0625 196.5 64.875 202.312 64.875 209.438C64.875 216.562 59.0625 222.188 51.9375 222.188H37.5V226.5C37.5 236.812 45.9375 245.25 56.25 245.25H227.812C246.938 245.25 262.5 229.687 262.5 210.562V54.75C262.5 45.1875 254.812 37.5 245.25 37.5Z" fill="#58B80C"/>
<path d="M38.8125 93.375H36H17.625C10.5 93.375 4.6875 99.1875 4.6875 106.313C4.6875 113.438 10.5 119.062 17.625 119.062H34.6875H37.5V106.688C37.5 102.188 38.0625 97.6875 38.8125 93.375Z" fill="#58B80C"/>
<path d="M34.6875 144.938H17.625C10.5 144.938 4.6875 150.75 4.6875 157.875C4.6875 165 10.5 170.625 17.625 170.625H34.6875H37.5V144.938H34.6875Z" fill="#58B80C"/>
<path d="M34.6875 196.5H17.625C10.5 196.5 4.6875 202.313 4.6875 209.438C4.6875 216.563 10.5 222.188 17.625 222.188H34.6875H37.5V196.5H34.6875Z" fill="#58B80C"/>
</svg>
