<svg width="70" height="70" viewBox="0 0 70 70" fill="none" xmlns="http://www.w3.org/2000/svg">
<path d="M62.7953 31.7029L58.362 27.2696C57.6037 26.5113 56.9912 25.0238 56.9912 23.9738V17.6738C56.9912 15.1071 54.8912 13.0071 52.3245 13.0071H46.0537C45.0037 13.0071 43.5162 12.3946 42.7578 11.6363L38.3245 7.20293C36.5162 5.3946 33.5412 5.3946 31.7328 7.20293L27.2412 11.6363C26.512 12.3946 25.0245 13.0071 23.9453 13.0071H17.6745C15.1078 13.0071 13.0078 15.1071 13.0078 17.6738V23.9446C13.0078 24.9946 12.3953 26.4821 11.637 27.2404L7.20366 31.6738C5.39533 33.4821 5.39533 36.4571 7.20366 38.2654L11.637 42.6988C12.3953 43.4571 13.0078 44.9446 13.0078 45.9946V52.2654C13.0078 54.8321 15.1078 56.9321 17.6745 56.9321H23.9453C24.9953 56.9321 26.4828 57.5446 27.2412 58.3029L31.6745 62.7363C33.4828 64.5446 36.4578 64.5446 38.2662 62.7363L42.6995 58.3029C43.4578 57.5446 44.9453 56.9321 45.9953 56.9321H52.2662C54.8328 56.9321 56.9328 54.8321 56.9328 52.2654V45.9946C56.9328 44.9446 57.5453 43.4571 58.3037 42.6988L62.737 38.2654C64.6328 36.4863 64.6328 33.5113 62.7953 31.7029ZM23.3328 26.2488C23.3328 24.6446 24.6453 23.3321 26.2495 23.3321C27.8537 23.3321 29.1662 24.6446 29.1662 26.2488C29.1662 27.8529 27.8828 29.1654 26.2495 29.1654C24.6453 29.1654 23.3328 27.8529 23.3328 26.2488ZM27.7953 45.2946C27.3578 45.7321 26.8037 45.9363 26.2495 45.9363C25.6953 45.9363 25.1412 45.7321 24.7037 45.2946C23.8578 44.4488 23.8578 43.0488 24.7037 42.2029L42.2037 24.7029C43.0495 23.8571 44.4495 23.8571 45.2953 24.7029C46.1412 25.5488 46.1412 26.9488 45.2953 27.7946L27.7953 45.2946ZM43.7495 46.6654C42.1162 46.6654 40.8037 45.3529 40.8037 43.7488C40.8037 42.1446 42.1162 40.8321 43.7203 40.8321C45.3245 40.8321 46.637 42.1446 46.637 43.7488C46.637 45.3529 45.3537 46.6654 43.7495 46.6654Z" fill="#58B80C"/>
</svg>
